<svg xmlns="http://www.w3.org/2000/svg" xmlns:xlink="http://www.w3.org/1999/xlink" viewBox="0,0,256,256" width="50px" height="50px" fill-rule="nonzero"><g fill="#fb621c" fill-rule="nonzero" stroke="none" stroke-width="1" stroke-linecap="butt" stroke-linejoin="miter" stroke-miterlimit="10" stroke-dasharray="" stroke-dashoffset="0" font-family="none" font-weight="none" font-size="none" text-anchor="none" style="mix-blend-mode: normal"><g transform="scale(5.12,5.12)"><path d="M32.84375,1.96875c-0.21875,0.03906 -0.41406,0.14844 -0.5625,0.3125l-4.21875,4.21875l-3.28125,-4.125c-0.21094,-0.26562 -0.53906,-0.40625 -0.875,-0.375c-0.31641,0.03906 -0.59375,0.22266 -0.75,0.5l-2.5,4.15625l-6.15625,-3.53125c-0.33594,-0.20312 -0.75781,-0.1875 -1.08203,0.03125c-0.32422,0.22266 -0.48437,0.61328 -0.41797,1l0.78125,4.65625l-5.625,-0.8125c-0.37891,-0.05469 -0.75781,0.11719 -0.97266,0.4375c-0.21094,0.31641 -0.22266,0.73047 -0.02734,1.0625l2.4375,4.0625l-5.03125,2.53125c-0.38281,0.19141 -0.60156,0.60156 -0.54297,1.02734c0.05469,0.42188 0.375,0.76172 0.79297,0.84766l3.8125,0.75l-1.5625,3.90625c-0.17187,0.39844 -0.06641,0.86328 0.26172,1.14844c0.32813,0.28516 0.80469,0.32813 1.17578,0.10156l0.5,-0.28125v2.59375c0.07031,0.6875 0.52734,1.28906 1.125,1.59375c-0.16797,0.13281 -0.36328,0.30469 -0.53125,0.53125c-0.5,0.69922 -0.78906,1.80078 -0.6875,3c0.39844,3.60156 2.70703,4.88672 3.40625,5.1875c0.30078,1.69922 1.09375,3.71094 2.59375,5.8125c1.5,2.30078 8.5,5.59375 10,5.59375c1.5,0 8.5,-3.39453 10,-5.59375c1.39844,-2.10156 2.19922,-4.21094 2.5,-5.8125c0.69922,-0.30078 3,-1.58594 3.5,-5.1875c0.10156,-1.19922 -0.21875,-2.30078 -0.71875,-3c-0.14062,-0.1875 -0.26562,-0.34766 -0.40625,-0.46875c0.64844,-0.28516 1.14453,-0.92969 1.21875,-1.65625v-2.15625c0.34375,0.00781 0.66406,-0.16016 0.85547,-0.44531c0.19141,-0.28516 0.22266,-0.64844 0.08203,-0.96094l-1.625,-4.0625l4.0625,-1.625c0.375,-0.14453 0.63281,-0.5 0.64453,-0.90234c0.01172,-0.40234 -0.21484,-0.77344 -0.58203,-0.94141l-5.09375,-2.5625l2.46875,-5.09375c0.17969,-0.35937 0.12891,-0.78906 -0.12891,-1.09766c-0.25781,-0.30469 -0.67578,-0.42578 -1.05859,-0.30859l-5.8125,1.6875l-0.8125,-4.875c-0.03125,-0.27344 -0.17187,-0.51953 -0.39062,-0.6875c-0.21875,-0.16406 -0.49609,-0.23047 -0.76562,-0.1875zM24.09375,4.71875l3.125,3.90625c0.17578,0.22656 0.44141,0.36719 0.73047,0.38672c0.28516,0.01953 0.56641,-0.08984 0.76953,-0.29297l3.59375,-3.59375l0.6875,4.03125c0.04297,0.28906 0.20703,0.54297 0.45313,0.69922c0.24609,0.15625 0.55078,0.19922 0.82813,0.11328l4.71875,-1.375l-1.90625,3.96875c-0.11719,0.23828 -0.13281,0.51563 -0.04687,0.76953c0.08984,0.25391 0.27344,0.46094 0.51563,0.57422l3.96875,2l-2.90625,1.15625c-0.25,0.09766 -0.44922,0.29297 -0.55859,0.53906c-0.10547,0.24609 -0.10547,0.52344 -0.00391,0.77344l0.78125,1.9375l-4.4375,-2.21875c-0.03125,-0.02344 -0.0625,-0.04297 -0.09375,-0.0625c-0.04687,-0.01953 -0.11719,-0.02734 -0.1875,-0.03125c-0.03125,0 -0.05859,0 -0.09375,0c-0.01172,0 -0.01953,0 -0.03125,0h-19c-0.03516,0 -0.0625,0 -0.09375,0c-0.125,0 -0.22656,0.02344 -0.3125,0.0625c-0.02734,0.01172 -0.07422,0.01172 -0.09375,0.03125l-1.03125,0.625l-3.46875,1.96875l0.9375,-2.3125c0.10547,-0.27734 0.08594,-0.58984 -0.05859,-0.84766c-0.14453,-0.26172 -0.39844,-0.44141 -0.69141,-0.49609l-2.15625,-0.4375l3.40625,-1.6875c0.24609,-0.125 0.43359,-0.34766 0.50781,-0.61328c0.07813,-0.26953 0.04297,-0.55469 -0.10156,-0.79297l-1.90625,-3.1875l4.90625,0.6875c0.32031,0.05469 0.64844,-0.04687 0.87891,-0.27734c0.23047,-0.23047 0.33203,-0.55859 0.27734,-0.87891l-0.65625,-3.90625l5.15625,2.9375c0.47656,0.25781 1.07031,0.09375 1.34375,-0.375zM19,20h12c1.10156,0 2,0.89844 2,2v2c0,1.10156 -0.89844,2 -2,2h-12c-1.10156,0 -2,-0.89844 -2,-2v-2c0,-1.10156 0.89844,-2 2,-2zM12.65625,28h24.65625c0.05859,0.22266 0.16406,0.4375 0.375,0.59375c0.19922,0.10156 0.61328,0.41406 0.8125,0.8125c0.30078,0.39844 0.50781,0.88672 0.40625,1.6875c-0.39844,3.19922 -2.59375,3.8125 -2.59375,3.8125c-0.24609,0.0625 -0.41406,0.24219 -0.53125,0.4375c-0.44922,-0.26172 -0.94531,-0.47266 -1.4375,-0.65625c-1.07031,-0.40234 -2.09375,-0.65625 -2.09375,-0.65625c-0.13281,-0.03906 -0.26953,-0.04687 -0.40625,-0.03125c-0.48437,0.05859 -0.85156,0.45703 -0.875,0.94531c-0.02344,0.48438 0.30469,0.91797 0.78125,1.02344c0,0 0.97656,0.24609 1.90625,0.59375c0.46484,0.17578 0.91406,0.39063 1.1875,0.5625c0.10547,0.06641 0.15234,0.09375 0.1875,0.125c0.02344,0.07813 0.05469,0.14844 0.09375,0.21875c-0.21094,0.5625 -0.48437,1.16406 -0.8125,1.8125c-0.36328,-0.45312 -0.80078,-0.84375 -1.21875,-1.15625c-0.83594,-0.625 -1.65625,-1.03125 -1.65625,-1.03125c-0.17578,-0.08594 -0.37109,-0.11719 -0.5625,-0.09375c-0.44922,0.04688 -0.8125,0.38672 -0.88672,0.83203c-0.07422,0.44922 0.16016,0.88672 0.57422,1.07422c0,0 0.67969,0.34375 1.34375,0.84375c0.33203,0.25 0.64453,0.53125 0.84375,0.78125c0.19922,0.25 0.25,0.42578 0.25,0.46875c0.00391,0.14063 0.03516,0.27734 0.09375,0.40625c-0.34766,0.4375 -0.84766,0.87109 -1.4375,1.3125c-0.24609,-0.46875 -0.57031,-0.875 -0.875,-1.25c-0.54687,-0.66797 -1.09375,-1.1875 -1.09375,-1.1875c-0.24219,-0.25 -0.59766,-0.35547 -0.9375,-0.28125c-0.36328,0.08594 -0.64844,0.36719 -0.73828,0.72656c-0.09375,0.36328 0.02344,0.74219 0.30078,0.99219c0,0 0.45313,0.44531 0.90625,1c0.36328,0.44531 0.58984,0.9375 0.6875,1.125c-2.0625,1.21484 -4.32031,2.15625 -4.90625,2.15625c-0.58984,0 -2.87109,-0.92578 -4.9375,-2.125c0.08203,-0.14844 0.33203,-0.68359 0.71875,-1.15625c0.45313,-0.55469 0.90625,-1 0.90625,-1c0.33203,-0.30469 0.42188,-0.79297 0.21875,-1.19141c-0.20703,-0.40234 -0.65234,-0.61719 -1.09375,-0.52734c-0.19141,0.04297 -0.36328,0.14063 -0.5,0.28125c0,0 -0.54687,0.51953 -1.09375,1.1875c-0.3125,0.38281 -0.66016,0.79688 -0.90625,1.28125c-0.57422,-0.42187 -1.06641,-0.87109 -1.40625,-1.28125c0.07031,-0.14453 0.10156,-0.30859 0.09375,-0.46875c0,-0.04297 0.05078,-0.21875 0.25,-0.46875c0.19922,-0.25 0.51172,-0.53125 0.84375,-0.78125c0.66406,-0.5 1.34375,-0.84375 1.34375,-0.84375c0.52734,-0.17187 0.8125,-0.73828 0.64063,-1.26562c-0.17187,-0.52734 -0.73828,-0.8125 -1.26562,-0.64062c-0.08594,0.01953 -0.17187,0.05078 -0.25,0.09375c0,0 -0.82031,0.40625 -1.65625,1.03125c-0.41797,0.3125 -0.85547,0.70313 -1.21875,1.15625c-0.02344,0.02734 -0.03906,0.06641 -0.0625,0.09375c-0.33594,-0.63672 -0.59766,-1.22656 -0.8125,-1.78125c0.07422,-0.10547 0.125,-0.21875 0.15625,-0.34375c0.03516,-0.03125 0.08203,-0.05859 0.1875,-0.125c0.27344,-0.17187 0.72266,-0.38672 1.1875,-0.5625c0.92969,-0.34766 1.90625,-0.59375 1.90625,-0.59375c0.54297,-0.12109 0.88672,-0.66016 0.76563,-1.20312c-0.12109,-0.54297 -0.66016,-0.88672 -1.20312,-0.76562c-0.01953,0.00781 -0.04297,0.01953 -0.0625,0.03125c0,0 -1.02344,0.25391 -2.09375,0.65625c-0.51172,0.19141 -1.03906,0.40625 -1.5,0.6875c-0.125,-0.17969 -0.32422,-0.31641 -0.5625,-0.375c0,0 -2.19531,-0.70703 -2.59375,-3.90625c-0.10156,-0.80078 0.10547,-1.28906 0.40625,-1.6875c0.30078,-0.39844 0.58203,-0.71094 0.78125,-0.8125c0.23828,-0.11719 0.41406,-0.32812 0.46875,-0.59375zM19.5,29c-0.82812,0 -1.5,0.67188 -1.5,1.5c0,0.82813 0.67188,1.5 1.5,1.5c0.82813,0 1.5,-0.67187 1.5,-1.5c0,-0.82812 -0.67187,-1.5 -1.5,-1.5zM30.5,29c-0.82812,0 -1.5,0.67188 -1.5,1.5c0,0.82813 0.67188,1.5 1.5,1.5c0.82813,0 1.5,-0.67187 1.5,-1.5c0,-0.82812 -0.67187,-1.5 -1.5,-1.5z"></path></g></g></svg>